# xmcd
#
# Track frame offsets: 
#        150
#        16991
#        35875
#        60296
#        76383
#        88996
#        108048
#        121146
#        136559
#        150618
#        167275
#        186707
#        202671
#        217963
#        231181
#        241626
#        256960
#        272299
#        280668
#        292434
#        307187
#
# Disc length: 4322 seconds
#
# Revision: 9
# Processed by: cddbd v1.5.2PL0 Copyright (c) Steve Scherf et al.
# Submitted via: ExactAudioCopy v1.1
#
DISCID=1910e015
DTITLE=Various Artist - The Very Best of Pure R&B [CD1]
DYEAR=2002
DGENRE=R&B
TTITLE0=Craig David - 7 Days
TTITLE1=Blackstreet feat. Dr Dre - No Diggity 
TTITLE2=2Pac - California Love
TTITLE3=Outkast - Ms Jackson
TTITLE4=City High - What Would You Do?
TTITLE5=Ja Rule - Always On Time  (feat. Ashanti)
TTITLE6=Mis-teeq - One Night Stand
TTITLE7=Christina Milian - AM To PM
TTITLE8=Montell Jordan - This Is How We Do It
TTITLE9=Donell Jones feat. Left Eye - You Know What's Up 
TTITLE10=Nelly feat. City Spud - Ride Wit Me
TTITLE11=Ruff Endz - No More
TTITLE12=Q-Tip - Breathe and Stop
TTITLE13=Mystikal feat. Nivea - Danger (Been So Long)
TTITLE14=Dream - He Loves You Not
TTITLE15=Next - Wifey
TTITLE16=Blue - Too Close
TTITLE17=Damage - Ghetto Romance
TTITLE18=112 - Peaches and Cream
TTITLE19=Koffee Brown - After Party
TTITLE20=Liberty X - Just A Little
EXTD=YEAR: 2002 ID3G: 14
EXTT0=
EXTT1=
EXTT2=
EXTT3=
EXTT4=
EXTT5=
EXTT6=
EXTT7=
EXTT8=
EXTT9=
EXTT10=
EXTT11=
EXTT12=
EXTT13=
EXTT14=
EXTT15=
EXTT16=
EXTT17=
EXTT18=
EXTT19=
EXTT20=
PLAYORDER=
